<?xml version="1.0" encoding="UTF-8"?>
<svg id="Layer_1" xmlns="http://www.w3.org/2000/svg" version="1.1" viewBox="0 0 400 400">
  <!-- Generator: Adobe Illustrator 29.7.1, SVG Export Plug-In . SVG Version: 2.1.1 Build 8)  -->
  <rect width="400" height="400" fill="#fff" rx="60" ry="60" />

  <defs>
    <style>
      .st0, .st1 {
        fill: #f97d00;
      }

      .st0, .st2 {
        display: none;
      }

      .st3 {
        fill: #00204a;
      }

      .st2 {
        fill: #f9c54c;
      }
    </style>
  </defs>
  <path class="st1" d="M239.39,172.96s-.02.02-.03.03v-.06l.03.03Z"/>
  <path class="st3" d="M34.28,180.36c2.19-3.96,5.23-7.04,9.15-9.26,3.91-2.21,8.34-3.32,13.3-3.32,6.07,0,11.27,1.6,15.6,4.81,4.32,3.21,7.21,7.58,8.67,13.12h-13.7c-1.02-2.14-2.47-3.76-4.34-4.88-1.87-1.12-4-1.68-6.38-1.68-3.84,0-6.95,1.34-9.33,4.01-2.38,2.67-3.57,6.24-3.57,10.71s1.19,8.04,3.57,10.71c2.38,2.67,5.49,4.01,9.33,4.01,2.38,0,4.51-.56,6.38-1.68,1.87-1.12,3.32-2.74,4.34-4.88h13.7c-1.46,5.54-4.35,9.9-8.67,13.08-4.32,3.18-9.52,4.77-15.6,4.77-4.96,0-9.39-1.1-13.3-3.32-3.91-2.21-6.96-5.28-9.15-9.22-2.19-3.94-3.28-8.43-3.28-13.48s1.09-9.56,3.28-13.52Z"/>
  <path class="st3" d="M128.66,178.87v40.66h-12.46v-5.54c-1.26,1.8-2.98,3.24-5.14,4.34-2.16,1.09-4.55,1.64-7.18,1.64-3.11,0-5.86-.69-8.23-2.08-2.38-1.38-4.23-3.39-5.54-6.01-1.31-2.62-1.97-5.71-1.97-9.26v-23.76h12.39v22.08c0,2.72.7,4.83,2.11,6.34,1.41,1.51,3.3,2.26,5.68,2.26s4.35-.75,5.76-2.26c1.41-1.51,2.11-3.62,2.11-6.34v-22.08h12.46Z"/>
  <path class="st3" d="M155.4,180.36c2.19-1.29,4.62-1.93,7.29-1.93v13.19h-3.42c-3.11,0-5.44.67-7,2-1.56,1.34-2.33,3.68-2.33,7.03v18.87h-12.46v-40.66h12.46v6.78c1.46-2.23,3.28-4,5.47-5.28Z"/>
  <path class="st3" d="M169.43,172.71c-1.38-1.29-2.08-2.88-2.08-4.77s.69-3.56,2.08-4.85c1.38-1.29,3.17-1.93,5.36-1.93s3.9.64,5.28,1.93c1.38,1.29,2.08,2.9,2.08,4.85s-.69,3.49-2.08,4.77c-1.38,1.29-3.15,1.93-5.28,1.93s-3.97-.64-5.36-1.93Z"/>
  <rect class="st3" x="168.52" y="178.87" width="12.46" height="40.66"/>
  <path class="st3" d="M243.21,218.29c-2.77-1.21-4.96-2.88-6.56-4.99-1.6-2.11-2.5-4.48-2.7-7.11h12.32c.15,1.41.8,2.55,1.97,3.43,1.17.87,2.6,1.31,4.3,1.31,1.55,0,2.76-.3,3.61-.91.85-.61,1.28-1.4,1.28-2.37,0-1.17-.61-2.03-1.82-2.59-1.21-.56-3.18-1.18-5.9-1.86-2.91-.68-5.34-1.4-7.29-2.15-1.94-.75-3.62-1.94-5.03-3.57-1.41-1.63-2.11-3.83-2.11-6.59,0-2.33.64-4.46,1.93-6.38,1.29-1.92,3.18-3.44,5.68-4.55,2.5-1.12,5.48-1.68,8.93-1.68,5.1,0,9.12,1.26,12.06,3.79,2.94,2.53,4.63,5.88,5.06,10.06h-11.51c-.19-1.41-.81-2.53-1.86-3.35-1.05-.83-2.42-1.24-4.12-1.24-1.46,0-2.58.28-3.35.84-.78.56-1.17,1.32-1.17,2.3,0,1.17.62,2.04,1.86,2.62s3.17,1.17,5.79,1.75c3.01.78,5.47,1.54,7.36,2.3,1.89.75,3.56,1.97,4.99,3.64,1.43,1.68,2.17,3.92,2.22,6.74,0,2.38-.67,4.51-2,6.38-1.34,1.87-3.26,3.34-5.76,4.41-2.5,1.07-5.41,1.6-8.71,1.6-3.55,0-6.7-.61-9.47-1.82Z"/>
  <path class="st3" d="M277.57,172.71c-1.38-1.29-2.08-2.88-2.08-4.77s.69-3.56,2.08-4.85c1.38-1.29,3.17-1.93,5.36-1.93s3.9.64,5.28,1.93c1.38,1.29,2.08,2.9,2.08,4.85s-.69,3.49-2.08,4.77c-1.38,1.29-3.15,1.93-5.28,1.93s-3.97-.64-5.36-1.93Z"/>
  <rect class="st3" x="276.66" y="178.87" width="12.46" height="40.66"/>
  <path class="st3" d="M320.68,208.96v10.57h-6.34c-4.52,0-8.04-1.1-10.57-3.32-2.53-2.21-3.79-5.82-3.79-10.82v-16.18h-4.96v-10.35h4.96v-9.91h12.46v9.91h8.16v10.35h-8.16v16.32c0,1.21.29,2.09.87,2.62.58.53,1.55.8,2.91.8h4.45Z"/>
  <path class="st1" d="M193.02,184.11"/>
  <path class="st0" d="M228.39,199.2c0,.25,0,.51-.02.76,0,0,0,.01,0,.02,0,.24-.02.47-.04.7-.01.2-.03.38-.05.58,0,.11-.02.22-.03.33-.03.21-.06.43-.09.65-.03.19-.06.38-.1.56-.01.09-.03.18-.05.28-.07.36-.15.73-.25,1.09-.03.11-.06.23-.09.34-.06.2-.11.4-.17.6,0,0,0,.02,0,.03-.07.23-.15.46-.24.69-.08.22-.16.44-.24.66,0,0,0,.02,0,.03-.17.44-.36.88-.57,1.3,0,.01,0,.02-.02.03-.21.44-.44.86-.68,1.28-.19.33-.38.64-.59.95-.06.09-.12.19-.18.28-.21.31-.43.61-.66.91l-.91-.91c-.05.08-.11.16-.17.24-.07.1-.15.19-.23.28l-6.64-6.64.57-1.24c.55-1.2.82-2.47.82-3.79,0-5.08-4.14-9.21-9.21-9.21s-9.21,4.14-9.21,9.21,4.14,9.21,9.21,9.21c1.35,0,2.64-.28,3.85-.84l1.25-.58,6.63,6.63c-.1.08-.19.16-.29.23-.08.06-.15.12-.23.17l.91.91c-.3.24-.6.45-.91.66-.2.14-.4.27-.61.4-.17.11-.34.21-.51.31-.08.04-.17.1-.25.14-.16.1-.33.19-.49.28-.2.1-.39.21-.59.3-.05.02-.09.05-.14.07-.19.09-.38.18-.59.27-.17.08-.35.16-.54.23-.07.03-.14.06-.21.08-.21.08-.41.16-.62.24-.19.07-.38.13-.57.19-.07.03-.14.05-.22.07-.2.07-.4.12-.6.17-.25.07-.5.14-.75.19-.21.05-.42.1-.63.14-.1.02-.21.04-.31.06-.18.03-.37.07-.56.09-.24.03-.47.07-.7.1-.29.03-.58.06-.87.08-.22.02-.44.03-.66.04,0,0-.02,0-.03,0-.25.01-.5.02-.75.02-10.97,0-19.86-8.89-19.86-19.86s8.89-19.86,19.86-19.86c5.48,0,10.45,2.22,14.04,5.82.47.46.9.94,1.32,1.46.69.84,1.32,1.75,1.87,2.7.24.42.46.84.67,1.28.14.29.27.58.4.88.06.15.12.3.18.45.18.45.34.91.49,1.38.09.31.18.62.26.94.08.31.16.64.23.96.26,1.29.4,2.64.4,4Z"/>
  <path class="st2" d="M217.14,204.09l.38-.83c.59-1.28.88-2.65.88-4.07,0-5.44-4.43-9.87-9.87-9.87s-9.87,4.43-9.87,9.87,4.43,9.87,9.87,9.87c1.44,0,2.83-.31,4.13-.9l.83-.38.65.65,5.6,5.6c.08-.05.15-.11.23-.17.1-.07.19-.15.29-.23.03-.03.07-.05.1-.08.02-.02.04-.03.07-.06.11-.09.23-.19.34-.29l-6.34-6.34-.65-.65-.83.39-.83.38c-1.12.52-2.33.78-3.58.78-4.72,0-8.56-3.84-8.56-8.56s3.84-8.56,8.56-8.56,8.56,3.84,8.56,8.56c0,1.23-.26,2.41-.76,3.52l-.38.83-.38.83.64.64.65.64,5.71,5.71c.1-.11.19-.22.28-.33.02-.02.04-.05.06-.07.03-.03.06-.07.08-.1.08-.09.16-.19.23-.28.06-.08.12-.16.17-.24l-6.25-6.25Z"/>
  <path class="st3" d="M229.02,194.98c-.07-.34-.15-.68-.24-1.01-.08-.34-.18-.66-.28-.99-.15-.49-.32-.97-.51-1.45-.06-.16-.13-.31-.19-.47-.13-.31-.27-.62-.42-.93-.22-.46-.46-.9-.71-1.34-.58-1.01-1.24-1.96-1.97-2.85-.44-.54-.9-1.05-1.39-1.53-3.79-3.79-9.01-6.12-14.79-6.12-11.55,0-20.92,9.36-20.92,20.92s9.36,20.92,20.92,20.92c.26,0,.53,0,.79-.02.01,0,.03,0,.04,0,.23,0,.46-.02.69-.04.31-.02.61-.05.92-.08.25-.03.49-.07.74-.1.2-.03.39-.07.59-.1.11-.02.21-.04.32-.06.22-.04.45-.09.67-.14.26-.06.52-.13.79-.2.21-.06.42-.12.63-.18.08-.02.15-.05.23-.07.2-.06.4-.13.6-.2.22-.07.43-.16.65-.24.07-.03.14-.06.22-.09.19-.07.38-.16.57-.24.21-.09.42-.18.62-.28.05-.02.1-.05.14-.07.21-.1.42-.21.62-.32.18-.09.35-.19.52-.29.09-.04.17-.1.26-.14.18-.11.36-.22.54-.33.21-.14.43-.28.64-.42l-7.12-7.12c-1.42.66-3.01,1.03-4.68,1.03-6.17,0-11.18-5.02-11.18-11.18s5.01-11.18,11.18-11.18,11.18,5.01,11.18,11.18c0,1.64-.36,3.2-1,4.61l7.13,7.13c.07-.1.13-.2.19-.29.21-.33.42-.66.62-1,.26-.44.5-.89.72-1.35,0-.01.01-.02.02-.03.21-.45.42-.9.6-1.37,0,0,0-.02.01-.03.09-.23.17-.46.26-.69.09-.24.17-.49.24-.73,0,0,0-.02,0-.03.07-.21.13-.42.19-.63.03-.12.06-.24.09-.36.1-.38.18-.76.26-1.15.02-.1.04-.19.05-.29.04-.2.07-.4.1-.59.03-.23.07-.45.1-.68.01-.11.03-.23.03-.35.02-.2.04-.4.06-.61.02-.24.03-.49.04-.74,0,0,0-.01,0-.02.01-.27.02-.53.02-.8,0-1.44-.14-2.85-.42-4.22Z"/>
  <g>
    <path class="st3" d="M203.99,195.11s.02-.02.03-.03c1.2-1.2,2.8-1.87,4.51-1.87v-1.51c-2.11,0-4.08.82-5.57,2.31-.01.01-.02.02-.03.03l1.07,1.06Z"/>
    <path class="st3" d="M210.24,193.45l.4-1.45c-.45-.12-.91-.21-1.37-.25l-.14,1.5c.38.04.75.1,1.11.2Z"/>
  </g>
  <polygon class="st3" points="369 178.87 369 178.87 355.51 178.87 346.19 204.3 336.78 178.87 322.87 178.87 339.41 218.15 331.72 235.19 331.72 235.19 330.96 236.9 330.96 236.9 330.08 238.84 343.49 238.84 345.21 234.8 369 178.87"/>
</svg>
